<?xml version="1.0" encoding="UTF-8"?>
<svg xmlns="http://www.w3.org/2000/svg" version="1.1" xmlns:xlink="http://www.w3.org/1999/xlink" viewBox="0 0 300.9 200.3">
  <defs>
    <style>
      .cls-1 {
        fill: #f15a32;
      }

      .cls-2 {
        stroke-width: .7px;
      }

      .cls-2, .cls-3 {
        stroke: #2c3452;
      }

      .cls-2, .cls-3, .cls-4, .cls-5, .cls-6 {
        fill: none;
      }

      .cls-2, .cls-3, .cls-5 {
        stroke-miterlimit: 10;
      }

      .cls-7 {
        fill: #ef98c1;
      }

      .cls-8 {
        fill: #e5a124;
      }

      .cls-3 {
        stroke-width: .4px;
      }

      .cls-9 {
        fill: #984444;
      }

      .cls-10, .cls-11, .cls-12 {
        fill: #2c3452;
      }

      .cls-13 {
        fill: #00a58f;
      }

      .cls-14 {
        fill: #fff;
      }

      .cls-15, .cls-11, .cls-12 {
        mix-blend-mode: soft-light;
      }

      .cls-11 {
        opacity: .8;
      }

      .cls-16 {
        fill: #f15d60;
      }

      .cls-5 {
        stroke: #efeff1;
        stroke-width: .4px;
      }

      .cls-17 {
        fill: #00adad;
      }

      .cls-18 {
        fill: #f78e22;
      }

      .cls-19 {
        clip-path: url(#clippath-1);
      }

      .cls-20 {
        isolation: isolate;
      }

      .cls-21 {
        fill: #f19ca1;
      }

      .cls-22 {
        fill: #f47c45;
      }

      .cls-23 {
        fill: #efeff1;
      }

      .cls-24 {
        fill: #406fb7;
      }

      .cls-25 {
        fill: #1672b9;
      }

      .cls-26 {
        fill: #f2b41c;
      }

      .cls-27 {
        clip-path: url(#clippath-2);
      }

      .cls-28 {
        fill: #f58678;
      }

      .cls-29 {
        fill: #fbbd9a;
      }

      .cls-30 {
        fill: #fed311;
      }

      .cls-6 {
        stroke: #4e873e;
        stroke-linecap: round;
        stroke-linejoin: round;
        stroke-width: .2px;
      }

      .cls-31 {
        clip-path: url(#clippath);
      }

      .cls-32 {
        fill: #ce4727;
      }
    </style>
    <clipPath id="clippath">
      <path class="cls-4" d="M213.5,133.9s5.8.7,10.7-1l-2.5,3.8,3.3,1.5-2.8,1.9s.5,6.4-.4,10.5c0,0-4.1.6-8.2.7l2.2-2.3-3.6-3,1.6-.8.2-7.9-4.2-3.4h3.6Z"/>
    </clipPath>
    <clipPath id="clippath-1">
      <path class="cls-4" d="M247.4,107.5s-6,1.6-10.8,2.1l3.1,1.9.9,5.6-1.8,1.9,6,.3-4.5,1.5s2.4.7,8-.4l-1.8-2.5,2.9-1.5-2.9-.2-.7-6.1,1.8-2.6Z"/>
    </clipPath>
    <clipPath id="clippath-2">
      <path class="cls-4" d="M161.9,21.3c.4-.1.6-.5.9-.4.2,0,.4.2.4.3,0,.2,0,.4,0,.6-.2.3-.5.6-.9.7-1,.3-1.5-.2-1.6-.5,0-.2,0-.5.3-.6.2-.1.7,0,.9-.1Z"/>
    </clipPath>
  </defs>
  <!-- Generator: Adobe Illustrator 28.6.0, SVG Export Plug-In . SVG Version: 1.2.0 Build 709)  -->
  <g class="cls-20">
    <g id="Layer_1">
      <g>
        <path class="cls-25" d="M26.3,50.6c-1.3-.5-3-1.2-4-2.3-1.1-1.1-1.7-2.5-2-3.7,0-.3-.1-.5-.2-.7,0,.2-.1.5-.2.7-.3,1.1-.9,2.6-2,3.7-1.1,1-2.7,1.8-4,2.3-.4.1-.8.3-1.1.3.3,0,.6.2,1,.3,1.3.5,3,1.2,4,2.3,1.1,1.1,1.7,2.5,2,3.7,0,.3.1.5.2.7,0-.2.1-.5.2-.7.3-1.1.9-2.6,2-3.7,1.1-1,2.7-1.8,4-2.3.4-.1.8-.3,1.1-.3-.3,0-.6-.2-1-.3Z"/>
        <path class="cls-25" d="M296.9,75.7c-1.3-.5-3-1.2-4-2.3-1.1-1.1-1.7-2.5-2-3.7,0-.3-.1-.5-.2-.7,0,.2-.1.5-.2.7-.3,1.1-.9,2.6-2,3.7-1.1,1-2.7,1.8-4,2.3-.4.1-.8.3-1.1.3.3,0,.6.2,1,.3,1.3.5,3,1.2,4,2.3,1.1,1.1,1.7,2.5,2,3.7,0,.3.1.5.2.7,0-.2.1-.5.2-.7.3-1.1.9-2.6,2-3.7,1.1-1,2.7-1.8,4-2.3.4-.1.8-.3,1.1-.3-.3,0-.6-.2-1-.3Z"/>
      </g>
      <path class="cls-13" d="M112.6,17.6h76.4c47.3,0,85.7,38.4,85.7,85.7v96.9H26.8v-96.9c0-47.3,38.4-85.7,85.7-85.7Z"/>
      <g>
        <path class="cls-10" d="M54.4,114c-2.4,0-4.3-1.5-5.6-4.3-.8-1.7-1.4-3.8-1.9-5.9-.3-1.1-.7-2.5-1.1-3.8-.4,1.2-.8,2.7-1.1,3.8-.6,2-1.1,4.2-1.9,5.9-1.3,2.9-3.2,4.3-5.6,4.3s-4.3-1.5-5.6-4.3c-.8-1.7-1.4-3.8-1.9-5.9-.3-1.1-.7-2.5-1.1-3.8-.4,1.2-.8,2.7-1.1,3.8-.6,2-1.1,4.2-1.9,5.9-1.3,2.9-3.2,4.3-5.6,4.3s-4.3-1.5-5.6-4.3c-.8-1.7-1.4-3.8-1.9-5.9-.5-1.8-1.3-4.6-1.9-5.6-1.4-.3-2.5-1.6-2.5-3.1s1.5-3.1,3.3-3.1,4.3,1.5,5.6,4.3c.8,1.7,1.4,3.8,1.9,5.9.3,1.1.7,2.5,1.1,3.8.4-1.2.8-2.7,1.1-3.8.6-2,1.1-4.2,1.9-5.9,1.3-2.9,3.2-4.3,5.6-4.3s4.3,1.5,5.6,4.3c.8,1.7,1.4,3.8,1.9,5.9.3,1.1.7,2.5,1.1,3.8.4-1.2.8-2.7,1.1-3.8.6-2,1.1-4.2,1.9-5.9,1.3-2.9,3.2-4.3,5.6-4.3s4.3,1.5,5.6,4.3c.8,1.7,1.4,3.8,1.9,5.9.5,1.8,1.3,4.6,1.9,5.6,1.4.3,2.5,1.6,2.5,3.1s-1.5,3.1-3.3,3.1ZM11.4,98.3h0,0Z"/>
        <path class="cls-10" d="M291,136.8c-2.5,0-4.5-1.5-5.8-4.6-.8-1.8-1.4-4-2-6.2-.3-1.1-.7-2.7-1.2-3.9-.4,1.3-.9,2.8-1.2,3.9-.6,2.1-1.2,4.4-2,6.2-1.4,3-3.3,4.6-5.8,4.6s-4.5-1.5-5.8-4.6c-.8-1.8-1.4-4-2-6.2-.3-1.1-.7-2.7-1.2-3.9-.4,1.3-.9,2.8-1.2,3.9-.6,2.1-1.2,4.4-2,6.2-1.4,3-3.3,4.6-5.8,4.6s-4.5-1.5-5.8-4.6c-.8-1.8-1.4-4-2-6.2-.5-1.8-1.3-4.8-2-5.9-1.5-.4-2.6-1.7-2.6-3.2s1.5-3.3,3.5-3.3,4.5,1.5,5.8,4.6c.8,1.8,1.4,4,2,6.2.3,1.1.7,2.7,1.2,3.9.4-1.3.9-2.8,1.2-3.9.6-2.1,1.2-4.4,2-6.2,1.4-3,3.3-4.6,5.8-4.6s4.5,1.5,5.8,4.6c.8,1.8,1.4,4,2,6.2.3,1.1.7,2.7,1.2,3.9.4-1.3.9-2.8,1.2-3.9.6-2.1,1.2-4.4,2-6.2,1.4-3,3.3-4.6,5.8-4.6s4.5,1.5,5.8,4.6c.8,1.8,1.4,4,2,6.2.5,1.8,1.3,4.8,2,5.9,1.5.4,2.6,1.7,2.6,3.2s-1.5,3.3-3.5,3.3ZM245.9,120.3h0,0Z"/>
      </g>
      <g>
        <path class="cls-23" d="M80.7,37.3s-9.1-1.8-17.5,4.4c-8.3,6.2-15.8,14.4-15.8,14.4l11.7,10.8,16-9.9,5.6-19.7Z"/>
        <path class="cls-9" d="M59,67s-9.3,10.3-15.2,11.1c-5.9.8-12.2-5.2-8.4-12.6,3.8-7.4,17.2-22,17.2-22l8.8,8.9-6.1,10.2,3.7,4.4Z"/>
        <path class="cls-3" d="M55.8,62s-5.1,8.7-11.6,13.3"/>
        <path class="cls-10" d="M58.4,191.5l-1.9,10.3s-9-1.1-21.1-2.9l7.6-2.5v-8.5s15.4,3.6,15.4,3.6Z"/>
        <path class="cls-10" d="M113.3,179.5l7.1,8.1s-5.9,6.2-15,14.1l3.9-6.6-7.9-7.9,11.9-7.6Z"/>
        <path class="cls-25" d="M104.4,83.9c1.1,6.4,1.4,14.9-5.4,34.8-8.6,25.3,1.7,39.6,5,45.4,4.6,7.9,9.7,15.9,9.7,15.9,0,0-4.6,6-11.6,8.3,0,0-26.8-22.1-31.8-48l-12,51.5s-10.8-.1-15.5-3.6c0,0-.4-38,8.8-70.9,7.9-28.3,19.4-40.7,19.4-40.7,0,0,32.2.6,33.3,7.3Z"/>
        <path class="cls-23" d="M59,188.2c-4.2-.3-8.4-.6-12.4-2s-2.3-.9-3.4-1.5-.5.2-.2.4c1.9,1,3.9,1.8,6,2.3s4.1.8,6.1.9,2.6.2,3.9.3.3-.4,0-.4h0Z"/>
        <path class="cls-23" d="M111.6,176.3c-2.7,2.8-5.6,5.4-9,7.2s-2.1,1.1-3.2,1.5-.1.5.1.4c3.7-1.5,6.9-3.7,9.9-6.4s1.7-1.6,2.5-2.5-.1-.5-.3-.3h0Z"/>
        <path class="cls-23" d="M70.7,140.7c-.8-5.2-.8-10.5-.1-15.7s2.3-10.9,4.2-16.1,2.6-6.5,4.1-9.7-.3-.5-.4-.2c-2.5,5.5-4.8,11.2-6.4,17s-2.3,10.6-2.4,15.9.2,5.9.7,8.8.5.2.4-.1h0Z"/>
        <path class="cls-23" d="M110,182.9c-4.1-5.8-8.4-11.6-12.2-17.6s-5.4-9.3-6.8-14.4-1.7-11.1-1.3-16.8.8-7.5,1.5-11.1,1.9-8.2,3.2-12.2c2.4-7.7,5.2-15.4,6-23.5s.2-2,.2-3-.4-.3-.4,0c-.3,8.3-2.9,16.2-5.5,24s-2.5,8-3.4,12.1-1.4,7.7-1.8,11.5c-.6,5.8-.7,11.7.6,17.4s3.4,9.9,6.1,14.4,7.6,11.3,11.5,16.9,1.2,1.7,1.8,2.6.5,0,.4-.2h0Z"/>
        <path class="cls-23" d="M77.1,101.6c-1.1-.6-2-1.4-2.8-2.4s-.2,0-.3,0,0,.2,0,.3c.8,1,1.8,1.8,2.9,2.5s.5-.2.2-.4h0Z"/>
        <path class="cls-23" d="M82.1,80.7c-2.1,3.3-3.4,7.1-4,10.9s-.3,2-.3,2.9.4.3.4,0c.2-3.7,1.2-7.5,2.7-10.8s1-1.9,1.5-2.8-.2-.5-.4-.2h0Z"/>
        <path class="cls-23" d="M83.6,84.9c0,.6.4,1.1,1,1.1.6,0,1.1-.3,1.2-.9,0-.6-.4-1.1-1-1.1-.6,0-1.1.3-1.2.9Z"/>
        <path class="cls-23" d="M98.9,93.1c-3.4-1.3-5.9-4.8-4.7-8.4s-.4-.4-.5-.1c-.9,2.9.4,6,2.7,7.8s1.5,1,2.3,1.3.4-.4.1-.5h0Z"/>
        <path class="cls-23" d="M98.5,96c-3.6-1.4-6.3-4.9-6.9-8.7s-.1-2.1,0-3.2-.4-.5-.5-.1c-.7,4,1,8.2,4.2,10.8s1.9,1.3,3,1.8.4-.4.1-.5h0Z"/>
        <path class="cls-23" d="M76.2,78.9c-1.8,1.6-4.7,1.6-6.6.2s-.5.2-.3.4c2.1,1.6,5.3,1.5,7.3-.3s-.1-.6-.4-.4h0Z"/>
        <path class="cls-23" d="M78.2,80c-2,2-5.3,2.8-8,1.7s-1.4-.7-1.9-1.3-.6.1-.4.4c2.2,2.3,5.8,2.2,8.5,1s1.5-.9,2.2-1.5-.1-.6-.4-.4h0Z"/>
        <path class="cls-12" d="M76.6,149.5c2.1,3.7,5.8,5.6,8.2,4.4,2.4-1.3,2.7-5.3.6-8.9-2.1-3.7-5.8-5.6-8.2-4.4-2.4,1.3-2.7,5.3-.6,8.9Z"/>
        <path class="cls-12" d="M49.6,144.2c-.5,4.2,1.4,7.8,4.1,8.1,2.7.3,5.4-2.8,5.8-7,.5-4.2-1.4-7.8-4.1-8.1-2.7-.3-5.4,2.8-5.8,7Z"/>
        <path class="cls-23" d="M103.4,84.4s19.4-31.5,3-43.5c-14-10.3-41.6-6.5-33.3,23.1l-1.7,13.2s15.5,8.4,32,7.2Z"/>
        <path class="cls-30" d="M75.7,49.9c-2.5,2.6-4,6.1-3.9,9.7s.4.2.4,0c0-3.5,1.4-6.9,3.8-9.4s0-.4-.3-.3h0Z"/>
        <path class="cls-30" d="M73.2,49.6c-.1,1,0,2.1.5,3s.4,0,.3-.2c-.4-.9-.5-1.9-.4-2.8s0-.2-.2-.2-.2,0-.2.2h0Z"/>
        <path class="cls-30" d="M103.7,38.4c-3.6,2-8.1,2.2-11.9.7s-2.1-1-3-1.6-.4.2-.2.3c3.4,2.5,8,3.2,12,2.2s2.3-.7,3.3-1.3,0-.5-.2-.3h0Z"/>
        <g>
          <path class="cls-10" d="M102.7,24c-1.8-3-.1-7.3,3.2-8.4,1-.3,2.2-.4,3.2,0,1.7.8,2.7,3.1,4.6,3,3,0,3.3-5.5,6.2-5.5,2.4,0,3.7,3.9,6,3.4.3,0,.6-.2.9-.3,1.1-.2,2.3.8,2.4,1.9,0,1.1-.8,2.1-1.8,2.6-1.1.4-2.3.4-3.4,0-.7-.2-1.3-.5-2-.4-1.1.1-1.9,1-2.3,1.9-.5.9-.8,1.9-1.5,2.7-1.2,1.3-3.3,1.5-4.8.6-.4-.3-.8-.7-1.3-.7-.8,0-1.5.7-2.1,1.2-.8.7-2,1.1-3.1.9-1.1-.2-2-1.2-2-2.3"/>
          <path class="cls-10" d="M91.3,30.9c-1.1-1.8-1.8-3.9-1.6-6,.2-2.1,1.4-4.1,3.4-5,1.2-.5,2.5-.6,3.8-.5,2.4.2,4.7,1.3,6.4,3,1.6,1.7,2.5,4.1,2.2,6.4-.1.9-.5,1.8-.9,2.7-.4.8-.9,1.5-1.6,2.1-1.3,1-3.1,1.4-4.7.9-1.6-.5-2.9-1.8-3.2-3.4"/>
          <path class="cls-9" d="M92.1,36.3l.5-1.5s-4.3-.2-3.4-3.6c1.6-5.9,1.7-7.6,4.7-8.8,3-1.2,8.8,3.1,7.1,7.9l-2.4,7.1s-1.2.5-3.1.2c-2.1-.3-3.4-1.3-3.4-1.3Z"/>
          <path class="cls-10" d="M94.8,28.5c0,.2-.2.4-.3.4-.1,0-.2-.2-.1-.5,0-.2.2-.4.3-.4.1,0,.2.2.1.5Z"/>
          <path class="cls-10" d="M91.5,27.9c0,.2-.2.4-.3.4-.1,0-.2-.2-.1-.5,0-.2.2-.4.3-.4.1,0,.2.2.1.5Z"/>
          <path class="cls-12" d="M92.5,34.7s2.2.2,4-.9l-4.5,2.6.4-1.7Z"/>
          <path class="cls-12" d="M98.7,31c0-1-.7-2-1.9-2.1-1.1-.1-2.1.7-2.2,1.7,0,1,.7,2,1.9,2.1,1.1.1,2.1-.7,2.2-1.7Z"/>
          <path class="cls-12" d="M90.7,29.5c0-.6-.2-1.2-.6-1.6-.2.9-.5,2-.9,3.3,0,0,0,0,0,.1.8-.3,1.4-.9,1.5-1.8Z"/>
          <path class="cls-10" d="M95.3,26.6c0,.2-.3.2-.6.1-.3,0-.5-.3-.5-.4,0-.2.3-.2.6-.1.3,0,.5.3.5.4Z"/>
          <path class="cls-10" d="M92.1,26c0,.2-.2.3-.5.4-.3,0-.6,0-.6-.2,0-.2.2-.3.5-.4.3,0,.6,0,.6.2Z"/>
          <path class="cls-9" d="M102.9,31.3c0-1-.7-1.9-1.8-2-1.1-.1-2,.6-2.1,1.7,0,1,.7,1.9,1.8,2,1.1.1,2-.6,2.1-1.7Z"/>
          <path class="cls-10" d="M101.5,30.2c-.7-.2-1.5.2-1.6,1s0,.2.1.2.2,0,.2-.1,0,0,0-.1,0,0,0,0c0,0,0,0,0,0,0,0,0-.1.1-.2,0,0,0,0,0,0,0,0,0,0,0,0,0,0,0,0,0,0,0,0,0,0,.1-.1s0,0,0,0,0,0,0,0c0,0,0,0,0,0,0,0,.1,0,.2,0s0,0,0,0,0,0,0,0c0,0,0,0,.1,0s0,0,0,0,0,0,0,0c0,0,0,0,.1,0,0,0,.2,0,.2-.1s0-.2-.1-.2h0Z"/>
          <path class="cls-10" d="M93.2,22.4c0,1,.8,1.9,1.7,2.4.9.5,2,.8,2.9,1.3.9.6,1.7,1.5,1.4,2.5,0,.3-.2.5-.1.8,0,.3.4.5.7.6.3,0,.6,0,.9-.2.7-.4,1.2-1.2,1.3-1.9.1-.8,0-1.6-.3-2.3-.6-1.4-1.7-2.7-3.1-3.4-1.5-.7-3.3-.7-4.7,0"/>
          <path class="cls-23" d="M92.4,30.6c.3,0,.6-.2.8,0,.1,0,.2.2.2.4,0,.2-.1.3-.3.4-.2.2-.6.3-.9.2-.8-.1-1-.6-1-.9,0-.2.2-.3.4-.3.2,0,.5.2.7.2Z"/>
          <g class="cls-15">
            <path class="cls-10" d="M93,29.6c.2-.7.3-1.5.3-2.1,0-.3-.2-.5-.5-.5-.4,0-.5.1-.6.4-.1.4-.2.8-.3,1.1,0,.3-.2.7-.2,1.1,0,.3.5.4.7.4.3,0,.5-.2.5-.4"/>
          </g>
        </g>
        <g>
          <g>
            <path class="cls-26" d="M75.5,75.1c-1.9-1.1-3.7-2.1-5.6-3.3-2.1-1.3-3.5-3.4-4.2-5.8-3.5-11.7,8.2-23.1,20.5-20,2.5.6,4.8,1.9,6.2,3.9,1.2,1.8,2.4,3.4,3.6,5.2,3.8,5.9,13.6,5.9,18.8,10.8,15.2,14.2-14.5,38.5-27.3,26.6-5.1-4.8-5.6-13.9-11.9-17.5Z"/>
            <path class="cls-14" d="M91.2,77l6.9-6.7c.6-.6.6-1.6,0-2.2h0c-.7-.6-1.7-.6-2.3,0l-6.9,6.7c-.6.6-.6,1.6,0,2.2h0c.7.6,1.7.6,2.3,0Z"/>
            <polygon class="cls-10" points="85.2 59.4 83.3 57.8 83.6 58 45.9 23.7 41.2 28.3 78 63.5 78 63.6 78.2 63.8 80.1 65.3 85.2 59.4"/>
            <path class="cls-14" d="M80.2,69.8c3,2.8,7.7,2.7,10.6-.1s2.8-7.4-.1-10.1c-3-2.8-7.7-2.7-10.6.1-2.9,2.8-2.8,7.4.1,10.1Z"/>
            <path class="cls-10" d="M81.6,68.3c2.1,2,5.6,2,7.6,0,2.1-2,2.1-5.3,0-7.3-2.1-2-5.6-2-7.6,0-2.1,2-2.1,5.3,0,7.3Z"/>
          </g>
          <polygon class="cls-17" points="95 71.3 95.2 71.1 55.1 33.6 54.9 33.8 95 71.3"/>
          <polygon class="cls-17" points="93.9 72.3 94.1 72.1 54 34.7 53.8 34.9 93.9 72.3"/>
          <polygon class="cls-17" points="92.9 73.4 93.1 73.2 53 35.7 52.8 35.9 92.9 73.4"/>
          <polygon class="cls-17" points="91.8 74.4 92 74.2 51.9 36.7 51.7 36.9 91.8 74.4"/>
          <g>
            <g>
              <path class="cls-14" d="M39.4,32c1.1-.9,2.2-1.8,3.3-2.6.3-.3.8.2.5.5-1.1.9-2.2,1.8-3.3,2.6-.3.3-.8-.2-.5-.5Z"/>
              <path class="cls-14" d="M42,34.4c1.1-.9,2.2-1.8,3.3-2.6.3-.3.8.2.5.5-1.1.9-2.2,1.8-3.3,2.6-.3.3-.8-.2-.5-.5Z"/>
              <path class="cls-14" d="M44.1,36.8c1.1-.9,2.2-1.8,3.3-2.6.3-.3.8.2.5.5-1.1.9-2.2,1.8-3.3,2.6-.3.3-.8-.2-.5-.5Z"/>
              <g>
                <path class="cls-10" d="M38.7,33c.5.5,1.4.4,2-.2s.7-1.4.1-1.9c-.5-.5-1.4-.4-2,.2-.6.6-.7,1.4-.1,1.9Z"/>
                <path class="cls-10" d="M41.2,35.4c.5.5,1.4.4,2-.2s.7-1.4.1-1.9c-.5-.5-1.4-.4-2,.2s-.7,1.4-.1,1.9Z"/>
                <path class="cls-10" d="M43.8,37.9c.5.5,1.4.4,2-.2.6-.6.7-1.4.1-1.9s-1.4-.4-2,.2-.7,1.4-.1,1.9Z"/>
              </g>
            </g>
            <g>
              <path class="cls-14" d="M49.9,21.7c-.9,1.1-1.8,2.1-2.7,3.2-.3.3.2.8.5.5.9-1.1,1.8-2.1,2.7-3.2.3-.3-.2-.8-.5-.5Z"/>
              <path class="cls-14" d="M52.5,24.1c-.9,1.1-1.8,2.1-2.7,3.2-.3.3.2.8.5.5.9-1.1,1.8-2.1,2.7-3.2.3-.3-.2-.8-.5-.5Z"/>
              <path class="cls-14" d="M55,26.1c-.9,1.1-1.8,2.1-2.7,3.2-.3.3.2.8.5.5.9-1.1,1.8-2.1,2.7-3.2.3-.3-.2-.8-.5-.5Z"/>
              <g>
                <path class="cls-10" d="M51,21c.5.5.5,1.4-.1,1.9-.6.6-1.5.7-2,.2-.5-.5-.5-1.4.1-1.9s1.5-.7,2-.2Z"/>
                <path class="cls-10" d="M53.5,23.4c.5.5.5,1.4-.1,1.9-.6.6-1.5.7-2,.2-.5-.5-.5-1.4.1-1.9.6-.6,1.5-.7,2-.2Z"/>
                <path class="cls-10" d="M56.1,25.9c.5.5.5,1.4-.1,1.9s-1.5.7-2,.2-.5-1.4.1-1.9c.6-.6,1.5-.7,2-.2Z"/>
              </g>
            </g>
            <path class="cls-26" d="M50.7,37.1c-2.8,0-5.5-3.1-7.5-5.2-3.3-3.4-3.7-6,.2-8.5,3.1-2,13.1,6.8,12.4,9.7-.1.5-.5.9-.8,1.3-.6.8-1.3,1.5-2.2,2.1-.7.4-1.4.6-2.1.6Z"/>
            <g>
              <g>
                <path class="cls-17" d="M51.8,30.4c.3.3.8.3,1.1,0,.3-.3.3-.7,0-1-.3-.3-.8-.3-1.1,0-.3.3-.3.7,0,1Z"/>
                <path class="cls-17" d="M49.5,28.2c.3.3.8.3,1.1,0,.3-.3.3-.7,0-1-.3-.3-.8-.3-1.1,0-.3.3-.3.7,0,1Z"/>
                <path class="cls-17" d="M46.7,26c.3.3.8.3,1.1,0,.3-.3.3-.7,0-1-.3-.3-.8-.3-1.1,0-.3.3-.3.7,0,1Z"/>
              </g>
              <g>
                <path class="cls-17" d="M42.5,30.1c.3.3.8.3,1.1,0,.3-.3.3-.7,0-1-.3-.3-.8-.3-1.1,0-.3.3-.3.7,0,1Z"/>
                <path class="cls-17" d="M44.7,32.5c.3.3.8.3,1.1,0,.3-.3.3-.7,0-1-.3-.3-.8-.3-1.1,0-.3.3-.3.7,0,1Z"/>
                <path class="cls-17" d="M47.2,34.9c.3.3.8.3,1.1,0,.3-.3.3-.7,0-1-.3-.3-.8-.3-1.1,0-.3.3-.3.7,0,1Z"/>
              </g>
            </g>
          </g>
        </g>
        <g>
          <path class="cls-9" d="M97.1,86.6s-1.7-1.4.4-3.2c0,0-.8-2.1,1.1-2.7,0,0-.8-2.4,1.3-2.9,0,0-1.2-3,2.4-2.4l2.6.9-6.1,11.3-1.8-1.1Z"/>
          <g>
            <path class="cls-9" d="M117.8,43.7c10.5,6.5,19,15.1,18.7,28.8-.3,13.6-12.9,21.1-24.6,19-11.6-2.1-14.5-4.6-14.5-4.6l5.5-11.3s7.8,3.9,13.6,2.4c5.2-1.4,10.2-10.4-3.4-17"/>
            <path class="cls-11" d="M136.1,71.7c-1.3.6-2.5,2.4-3,4.7-.5,2.3,0,4.4,1,5.4,1.6-3,2.4-6.4,2-10.1Z"/>
            <path class="cls-9" d="M107.4,77.3s0-2.1-2.1-2.4c-1.7-.2-2.7,1.8-2.7,1.8l4.8.6Z"/>
            <path class="cls-10" d="M105.5,76.2c-.9-.2-1.9-.4-2.8-.6s-.3.3,0,.4c.9.2,1.9.4,2.8.6s.3-.3,0-.4h0Z"/>
            <path class="cls-23" d="M80.1,37.4s29.1-6.5,48.8,14.9c0,0-6.3,4.3-11.7,11.6,0,0-13.5-16.8-21-17.7-4.1-.5-25.5-2.7-16.1-8.7Z"/>
            <path class="cls-30" d="M125.4,49.1c-1.4,1-2.7,2.2-3.9,3.5s-3,3.3-4.4,5.1-1.7,2.3-2.5,3.5.2.4.3.2c2.4-3.7,5.3-7.2,8.5-10.2s1.3-1.2,2.1-1.7,0-.5-.2-.3h0Z"/>
          </g>
        </g>
        <path class="cls-9" d="M52.7,43.4s4.9-5.9,7.2-6.6c2.3-.7,3.3,1.7,2.8,2.1-.5.5-.8.1-1.4-.6l-1.5,1.8s2-.3,3.4.4c1.3.7.6,1.6.6,1.6,0,0,1.6.4,2.1,1.4.4,1,.4,1.4.4,1.4,0,0,1.2.5,1.5,1.4s-.3,2.7-.8,2.6c-.5,0-.6-1.7-.6-1.7,0,0-.2,1.5-1.9,3.2-1.7,1.7-2.8,1.9-2.8,1.9l-8.8-8.9Z"/>
        <line class="cls-3" x1="65.9" y1="45" x2="64.3" y2="45.3"/>
        <line class="cls-3" x1="63.4" y1="42.1" x2="61.7" y2="42.2"/>
      </g>
      <g>
        <g>
          <path class="cls-10" d="M205.3,19.1c1,1,3.2,1.5,4.3.6,1.1-1,.7-3.1-.4-4.2-1-1-2.8-1.1-3.9,0-1.1,1-1.1,2.6,0,3.7Z"/>
          <path class="cls-10" d="M217.1,14.5c-.7,1.2-.7,3.2.5,3.9s3.1-.2,3.8-1.4c.7-1.2.3-2.7-.9-3.4-1.2-.7-2.8-.3-3.5.8Z"/>
          <path class="cls-16" d="M209.7,19.5c.6-.8,1-1.8,1.2-2.7s.6-2.1,0-2.8-.6-.4-.9-.4-.5.3-.6.5c-.4.8-.3,1.7-.3,2.5s0,1.7.2,2.6.3.2.3,0c0-.6-.1-1.3-.2-1.9s0-1.7.1-2.5.4-1.2,1-.8.4,1.8.3,2.5-.7,2-1.3,2.8.1.3.2.1h0Z"/>
          <path class="cls-16" d="M209.7,19.4c-.8-.8-2-1.2-3.1-1.4s-2.2-.1-2.6.8.3,1,.8,1.2c.8.3,1.7.4,2.6.4s1.8,0,2.3-.7-.1-.3-.2-.1c-.3.5-1.2.6-1.7.6-.8,0-1.6,0-2.3-.2s-1.2-.3-1.1-.8.4-.5.6-.6c.5-.2,1-.2,1.5-.2s1.3.2,1.9.5,1,.5,1.4.9.3,0,.2-.2h0Z"/>
          <path class="cls-16" d="M218.2,17.8c0-.8.2-1.7.2-2.5s-.1-1.8-.8-2.4-1.4-.3-1.6.4.2,1.7.5,2.3.5.9.8,1.3.4.6.7.8.3-.1.1-.2-.4-.4-.5-.6c-.2-.3-.4-.6-.6-1-.4-.7-.7-1.5-.8-2.2s0-.5.2-.7.6,0,.9,0c.6.4.7,1.4.7,2.1s0,1.7-.2,2.5.3.2.3,0h0Z"/>
          <path class="cls-16" d="M218.6,18.3c.7.2,1.4.4,2.1.6s1.6.3,2-.3,0-1.1-.4-1.3-1.4-.2-2.1,0-.8.2-1.2.3-.6.2-.7.4,0,.3.2.2.4-.2.5-.3c.3-.1.6-.2.9-.2.6-.1,1.3-.2,2,0s.9.4.7.9-1.3.4-1.7.3c-.7-.1-1.4-.4-2.1-.6s-.3.2,0,.3h0Z"/>
          <path class="cls-16" d="M209.7,19.1c-1.5,2.7-3.2,5.4-5.9,7s-1.6.8-2.5,1-.1.3,0,.3c3.2-.7,5.5-3.2,7.2-5.8s.9-1.5,1.4-2.3-.2-.3-.2-.1h0Z"/>
          <path class="cls-16" d="M208.8,21.1c-.2,1.5-.7,3-1.4,4.3s-1.5,2.6-2.5,3.8,0,.3.2.2c1.1-1.2,1.9-2.5,2.6-3.9s1.2-2.9,1.4-4.4-.3-.2-.3,0h0Z"/>
          <path class="cls-16" d="M217.8,17.7c1.1,1.5,2.1,3.1,3.3,4.6s2.7,2.7,4.4,3.6.3-.2.1-.2c-1.7-.9-3.2-2-4.4-3.5s-2.2-3-3.3-4.5-.4,0-.2.1h0Z"/>
          <path class="cls-16" d="M219.1,18.6c.5.6,1.3,1,2.1,1.3s1.6.5,2.5.5.2-.3,0-.3c-.8,0-1.6-.2-2.3-.5s-1.5-.6-2-1.2-.3,0-.2.2h0Z"/>
          <path class="cls-10" d="M217.6,29.9c1.1-.2,2.1-.9,2.9-1.8,2.4-2.8,1.9-7.4-1-9.7-2.9-2.3-7-2.6-10.4,1.2-2.9,3.2-3.1,6.5-.8,9.4.6.7,1.3,1.3,2.1,1.7,1.7.7,3.7,0,5.2-.9"/>
          <path class="cls-28" d="M264.5,25c.9-1.1,2.4.5,2.8,1.4,0,0-2.6-6.3-1-7.2.9-.5,1.4.4,1.4.4,0,0,.1-1.1,1-1.3.9-.2,1.6.8,1.6.8,0,0,.1-.8,1.1-1,.9-.2,1.7,1.1,1.7,1.1,0,0,0-1.1,1.5-.7,1.3.3,2.1,5.8,2.1,5.8,0,0,4.2,6.4.9,9.1h-10.7s-3.2-7.2-2.3-8.4Z"/>
          <path class="cls-10" d="M267.6,19.9c.6,1.3,1.1,2.7,1.3,4.1s.4.2.3,0c-.2-1.5-.6-2.9-1.3-4.2s-.4,0-.3.2h0Z"/>
          <path class="cls-10" d="M270.3,19.3c.4.7.7,1.5.9,2.3s.3,1.7.5,2.5.4.1.3,0c-.2-.9-.3-1.8-.5-2.6s-.5-1.6-1-2.3-.4,0-.3.2h0Z"/>
          <path class="cls-10" d="M272.8,19.3c.8,1.4,1.2,3,1.4,4.6s.4.2.3,0c-.1-1.7-.6-3.3-1.4-4.8s-.4,0-.3.2h0Z"/>
          <path class="cls-10" d="M268.8,27.3c.8-.2,1.8,0,2.5.5s1.1,1.4,1,2.3.3.2.3,0c0-1-.3-1.9-1.1-2.5s-1.8-.8-2.8-.5-.1.4,0,.3h0Z"/>
          <path class="cls-10" d="M206,190.1l-.6,11.2s9.6,1,22.7,1.8l-7.3-4.3,2.1-8.8-16.8.2Z"/>
          <path class="cls-23" d="M220.8,198.5c-1-.2-2-.1-2.9.5s0,.4.2.3c.8-.5,1.7-.6,2.6-.4s.3-.3,0-.4h0Z"/>
          <path class="cls-23" d="M219.7,200.1c.8-.4,1.6-.5,2.4-.4s.2,0,.2-.2,0-.2-.2-.2c-.9,0-1.8,0-2.6.5s0,.4.2.3h0Z"/>
          <path class="cls-23" d="M220.9,198.8c1.2-1.9,2.1-4.3,4.5-4.7h-.2c.8,1.7-1.6,3.1-3,3.7s-.7.3-1.1.3-.2.4,0,.4c.9,0,1.7-.5,2.4-.9s1.7-1.2,2.1-2.1.2-1,0-1.5-.1-.2-.2-.1c-2.5.5-3.5,3-4.7,4.9s.2.4.3.2h0Z"/>
          <path class="cls-23" d="M221.2,198.4c-.1-.4-.3-.9-.5-1.3s-.6-1-1-1.5c-.6-.8-1.7-1.7-2.8-1.3s-.8.5-1,.9,0,.7.2.9c.5.7,1.5,1.2,2.3,1.6s1.6.7,2.4.9.3-.3,0-.4c-.6-.2-1.2-.4-1.8-.7s-1.7-.7-2.3-1.3-.4-.4-.5-.7.2-.6.5-.7c.9-.6,1.9.1,2.5.8s.8,1,1.1,1.6.5.8.6,1.3.4.1.4,0h0Z"/>
          <path class="cls-23" d="M221.2,198.8c1.1-.5,2.1.5,3,1s1,.5,1.5.4,1.3-.5,1.8-1,0-.4-.3-.3c-.5.5-1.1.9-1.8.9s-1-.3-1.5-.6c-.9-.6-1.9-1.2-3-.8s0,.4.2.3h0Z"/>
          <path class="cls-23" d="M221.3,198.2c-.5,0-1,0-1.5.3s-.7.6-1,.9-.6.7-1,1-1,.4-1.6.3-.3.3,0,.4c.6,0,1.1,0,1.6-.2s.8-.6,1.1-.9.6-.7,1-1,.9-.4,1.4-.3.2-.3,0-.4h0Z"/>
          <path class="cls-10" d="M238,188.8l1.4,11.1s9.6-.6,22.7-2l-8-3,.4-9-16.5,3Z"/>
          <path class="cls-23" d="M254.1,194.6c-1,0-2,.2-2.8.9s0,.4.3.3c.7-.7,1.6-.9,2.5-.8s.2-.4,0-.4h0Z"/>
          <path class="cls-23" d="M253.3,196.4c.7-.5,1.4-.8,2.3-.8s.2-.4,0-.4c-.9,0-1.7.3-2.5.9s-.1.2,0,.3.2.1.3,0h0Z"/>
          <path class="cls-23" d="M254.3,194.8c.8-2,1.3-4.5,3.5-5.4h-.2c.7,1,0,2.1-.8,2.9s-.9.8-1.4,1.1-.8.5-1.2.6-.1.4,0,.4c.5-.1,1-.4,1.4-.6s1.1-.8,1.5-1.3c.8-.9,1.4-2.2.7-3.3s-.1-.1-.2,0c-2.4.9-3,3.5-3.8,5.6s.3.3.4,0h0Z"/>
          <path class="cls-23" d="M254.5,194.4c-.2-.4-.5-.8-.8-1.2s-.8-1-1.3-1.4c-.8-.7-2-1.4-3-.7s-.6.6-.7,1,.1.7.4.9c.6.6,1.7.9,2.5,1.1s1.6.4,2.5.5.3-.3,0-.4c-.6,0-1.2-.2-1.8-.4s-1.8-.4-2.5-.9-.5-.3-.7-.6,0-.5.2-.7c.3-.3.7-.5,1.2-.5s1,.4,1.4.7,1,.9,1.4,1.4.6.8.8,1.2.4,0,.3-.2h0Z"/>
          <path class="cls-23" d="M254.5,194.9c1-.7,2.2.1,3.2.5s1,.3,1.6.1,1.2-.7,1.6-1.3-.2-.4-.3-.2c-.4.6-.9,1.1-1.7,1.2s-1.1-.2-1.5-.4c-1-.4-2-.9-3-.3s0,.4.2.3h0Z"/>
          <path class="cls-23" d="M254.6,194.3c-.8,0-1.5.4-1.9,1.1s-.7,1.3-1.3,1.8-.9.4-1.3.4-.2.4,0,.4c.9,0,1.6-.3,2.1-1s.7-1.3,1.2-1.8.8-.4,1.2-.5.2-.4,0-.4h0Z"/>
          <path class="cls-10" d="M215.6,33.7s-17.6,1.8.4-1.9c8.1-1.6,20.1-.3,28.8,8.9,10.1,10.7,17.8,8.2,20.4.9.8-2.2.6-6.9-.4-9.4l15.4-1c2.8,11.8,0,25-13.6,30.5-14.8,5.9-35.6-.5-51.1-28.1"/>
          <path class="cls-11" d="M264,61.7c.2-1.4,1.8-3.1,4-4.1,2.3-1.1,4.6-1.2,5.9-.6-2.6,2.3-6,4-9.9,4.7Z"/>
          <path class="cls-10" d="M206.6,79.3s-20.7-39.4,1.5-43.2c16.9-2.9,38.2,12.9,30.8,24.6v14.3s-16.5,4.9-32.3,4.4Z"/>
          <path class="cls-23" d="M237,47c2.1,2.4,3.5,5.7,3.4,8.8s-.2,1.9-.5,2.8.2.2.3,0c1.2-3.3.1-6.9-1.6-9.8s-.9-1.4-1.5-2.1-.3,0-.2.2h0Z"/>
          <path class="cls-23" d="M239.5,46.5c0,1-.2,1.9-.6,2.7s.2.3.2.1c.5-.9.7-1.9.7-2.9s-.3-.2-.3,0h0Z"/>
          <path class="cls-23" d="M232.5,33.2c2.6,2.5,4.3,6,4.6,9.6s0,2,0,3,.3.2.3,0c.4-3.6-.5-7.4-2.6-10.4s-1.3-1.7-2-2.4-.3,0-.2.2h0Z"/>
          <path class="cls-7" d="M205.2,187.8c9.7,2.2,17.3,3.6,17.3,3.6,7.9-41.2,2.2-84.9,2.2-84.9l3-.4c4.8,25.3,9.9,83.1,9.9,83.1,7.8,1.7,17.3-2.2,17.3-2.2,2.9-87-15.4-112.7-15.4-112.7l-.5-5.5c-15.4,4.5-35.5,4.8-35.5,4.8l.7,4.4c-3.8,8.8-4.4,17-2.6,32.1,4.6,38.7,3.6,77.6,3.6,77.6Z"/>
          <path class="cls-23" d="M236.2,190.1c6.7-.2,13.3-.5,19.9-1.1-.2-2.3-.4-4.5-.6-6.8-6.5.5-13,.9-19.5,1,0,2.3.1,4.6.2,6.8Z"/>
          <path class="cls-28" d="M192.8,75.3c1.3,0,2.6,0,3.7,0,.4-.8,1.1-1.4,2.1-1.5,1.2-.2,2.4.5,2.9,1.5,2.9,0,4-.2,4.4,1.1.1.5-.2,1-.7,1.4,1.2.8.7,2.7-.4,3,1,.9,1,2.3-.8,2.7.2.3.7.5.4,1.4-.3,1-3,1.4-3,1.4,0,0-5.8.7-9.5.5l1-11.7Z"/>
          <path class="cls-10" d="M220,32.5c-32.7-2.1-48.6,12.3-52.1,26.4-3.3,13.6,4.4,25.3,16.3,27.6,7.4,1.4,11.7.7,11.7.7l.9-12.8c-3.6-.3-9.7-1-12.3-4.1-5-6,1-17.6,17.2-17"/>
          <path class="cls-11" d="M168.3,58.3c1.1.9,1.8,3,1.5,5.4-.3,2.4-1.3,4.4-2.6,5.1-.7-3.4-.4-7,1.1-10.5Z"/>
          <path class="cls-23" d="M197.5,34.6c1.4,4.3,2,8.9,1.6,13.5s-.3,2.6-.6,3.9.2.3.3,0c.9-4.5.9-9.2,0-13.7s-.6-2.6-1-3.8-.3,0-.3,0h0Z"/>
          <path class="cls-10" d="M201.8,75.2c-1-.2-2-.2-3-.2s-.2.3,0,.3c1,0,2,0,2.9.2s.3-.3,0-.3h0Z"/>
          <path class="cls-28" d="M218.6,33.2l-.3-1.4s3.8.3,3.4-2.8c-.7-5.4-.6-6.9-3.2-8.3-2.5-1.3-8.1,1.8-7.2,6.3l1.3,6.5s1,.6,2.7.5c1.9,0,3.2-.8,3.2-.8Z"/>
          <path class="cls-10" d="M217.1,26c0,.2.1.4.2.4.1,0,.2-.2.2-.4,0-.2-.1-.4-.2-.4-.1,0-.2.2-.2.4Z"/>
          <path class="cls-10" d="M220.1,25.9c0,.2.1.4.2.4.1,0,.2-.2.2-.4,0-.2-.1-.4-.2-.4-.1,0-.2.2-.2.4Z"/>
          <path class="cls-12" d="M218.4,31.8s-2,0-3.4-1.2l3.6,2.7-.2-1.5Z"/>
          <path class="cls-12" d="M213.4,27.8c0-.9.9-1.7,1.9-1.7,1,0,1.8.8,1.8,1.7,0,.9-.9,1.7-1.9,1.7-1,0-1.8-.8-1.8-1.7Z"/>
          <path class="cls-12" d="M220.6,27.3c0-.5.3-1,.7-1.4.1.8.2,1.8.4,3,0,0,0,0,0,.1-.7-.3-1.1-1-1.1-1.7Z"/>
          <path class="cls-10" d="M216.8,24.3c0,.1.3.2.5.2.3,0,.5-.2.5-.3,0-.1-.3-.2-.5-.2-.3,0-.5.2-.5.3Z"/>
          <path class="cls-10" d="M219.7,24.1c0,.1.1.3.4.4.3,0,.5,0,.6,0,0-.1-.1-.3-.4-.4-.3,0-.5,0-.6,0Z"/>
          <path class="cls-28" d="M209.6,27.7c0-.9.8-1.6,1.8-1.6,1,0,1.7.8,1.7,1.7,0,.9-.8,1.6-1.8,1.6-1,0-1.7-.8-1.7-1.7Z"/>
          <path class="cls-10" d="M211,27.2c.1,0,.2,0,.3,0s.2,0,.3.2.2.2.2.3,0,.2,0,.3,0,.1.1.1.1,0,.1-.1c0-.3-.2-.6-.4-.8s-.6-.3-.9-.2-.1.1,0,.2,0,.1.2,0h0Z"/>
          <path class="cls-23" d="M219,28.1c-.3,0-.5-.2-.7-.1-.1,0-.2.2-.2.3,0,.1,0,.3.2.4.2.2.5.3.8.3.7,0,1-.4,1-.7,0-.2-.1-.3-.3-.3-.2,0-.5.1-.7.1Z"/>
          <g class="cls-15">
            <path class="cls-10" d="M218.5,27.2c0-.6-.1-1.4,0-1.9,0-.3.2-.4.5-.4.4,0,.4.2.5.4,0,.3.1.7.2,1,0,.3.1.7,0,1,0,.3-.5.3-.7.3-.2,0-.4-.2-.4-.4"/>
          </g>
          <path class="cls-23" d="M225.4,74.8c0,.6.6,1,1.3,1,.6,0,1.1-.6,1-1.2,0-.6-.6-1-1.3-1-.6,0-1.1.6-1,1.2Z"/>
          <path class="cls-23" d="M238.1,74.7c-3.6,1.1-7.3,1.9-11,2.5s-8.7,1.2-13.1,1.3-5.1,0-7.7-.1-.2.3,0,.3c4.5.3,9.1.2,13.6-.3s8.2-1,12.3-2,4-.9,5.9-1.5.1-.4,0-.3h0Z"/>
          <path class="cls-23" d="M228.7,71.4c.9,7.4,2.3,14.7,2.5,22.2s0,4.3-.2,6.4.3.2.3,0c.6-7.5-.5-15-1.6-22.4s-.6-4.1-.8-6.1-.4-.2-.3,0h0Z"/>
          <path class="cls-23" d="M222.8,72.3c.5,4.6,1.1,9.2,1.6,13.9s.4.2.3,0c-.5-4.6-1.1-9.2-1.6-13.9s-.4-.2-.3,0h0Z"/>
          <path class="cls-23" d="M209.7,73.3c0,1.9,0,3.7.5,5.5s.4.1.3,0c-.4-1.8-.5-3.6-.4-5.4s-.3-.2-.3,0h0Z"/>
          <path class="cls-23" d="M211.5,73.1c0,1.9,0,3.7.5,5.5s.4.1.3,0c-.4-1.8-.5-3.6-.4-5.4s-.3-.2-.3,0h0Z"/>
          <path class="cls-23" d="M235.9,69.8c.4,1.8.8,3.6.8,5.4s.3.2.3,0c0-1.9-.4-3.7-.8-5.5s-.4-.1-.3,0h0Z"/>
          <path class="cls-23" d="M234.2,70c.4,1.8.8,3.6.8,5.4s.3.2.3,0c0-1.9-.4-3.7-.8-5.5s-.4-.1-.3,0h0Z"/>
          <path class="cls-23" d="M229.1,105.2c-1.9.5-3.9,1.1-5.9.4s-.3.3,0,.3c2,.7,4.1.1,6-.4s.1-.4,0-.3h0Z"/>
          <path class="cls-23" d="M206.7,78.8c-2.8,7-3.2,14.8-2.9,22.3.3,8,1.9,15.9,2.6,23.8s1,15,1.2,22.5.3,5.9.3,8.9,0,6,0,8.9c0,6-.2,12-.5,17.9s0,1-.1,1.5.3.2.3,0c.4-5.7.5-11.3.6-17s0-6.2,0-9.3-.2-5.5-.3-8.3c-.3-7.3-.5-14.7-1.1-22-.3-4.2-.8-8.5-1.4-12.7s-1-7.5-1.3-11.3c-.6-7.6-.5-15.5,1.8-22.8s.5-1.6.9-2.5-.2-.3-.3,0h0Z"/>
          <path class="cls-23" d="M204.3,191c6.6.7,13.2,1.3,19.9,1.6.1-2.3.3-4.6.4-6.8-6.5-.3-13-.9-19.5-1.6-.3,2.3-.6,4.5-.8,6.8Z"/>
          <path class="cls-23" d="M214,79c-.8,1.4-2.1,2.4-3.4,3.2s-3.3,1.6-5.1,1.8-.2.4,0,.3c1.9-.2,3.7-.9,5.3-1.8s2.8-1.9,3.5-3.4-.2-.4-.3-.2h0Z"/>
          <path class="cls-23" d="M216.5,79c-1.1,3.5-4.7,5.9-8.1,6.7s-2,.3-3,.3-.2.3,0,.3c1.9.1,3.7-.3,5.4-1.1s3.4-2,4.6-3.5,1.1-1.7,1.4-2.7-.3-.3-.3,0h0Z"/>
          <path class="cls-23" d="M241.6,77.9c-.9.4-2,0-2.8-.4s-1.8-1-2.2-1.9-.4-.1-.3,0c.4,1,1.4,1.7,2.3,2.1s2.1.8,3.1.4.1-.4,0-.3h0Z"/>
          <path class="cls-23" d="M242.6,80.5c-3.1.6-7-.8-8.3-3.9s-.4-.1-.3,0c1.3,3.3,5.4,4.7,8.7,4.1s.1-.4,0-.3h0Z"/>
          <path class="cls-23" d="M219.7,103.9c-1-.4-2-.9-3-1.2s-.3.3,0,.3c1,.3,2,.7,2.9,1.1s.4-.2.2-.3h0Z"/>
          <path class="cls-23" d="M216.6,104.5c-.5-.2-1.1-.3-1.6-.3s-.2,0-.2.2,0,.2.2.2c.5,0,1,.2,1.5.3s.3-.3,0-.3h0Z"/>
          <path class="cls-23" d="M239.7,97.6c-.6.5-1.2,1.1-1.6,1.7s0,.2,0,.2.2,0,.2,0c.5-.6,1-1.1,1.6-1.6s0-.2,0-.2-.2,0-.2,0h0Z"/>
          <path class="cls-23" d="M218.7,51c1,1.3,1.8,2.7,2.4,4.2s.8,3.1,1,4.7.4.2.3,0c-.1-1.6-.4-3.3-1-4.8s-1.4-3-2.4-4.3-.4,0-.3.2h0Z"/>
          <path class="cls-23" d="M222.1,51.7c.5.7,1,1.5,1.3,2.3s.1.1.2.1.2-.1.1-.2c-.3-.8-.8-1.6-1.3-2.4s-.4,0-.3.2h0Z"/>
          <path class="cls-23" d="M223.8,35c-3.1,3.3-8.2,3.5-12.2,1.8s-2.1-1.1-3-1.9-.4,0-.2.2c3.3,2.9,8.5,3.9,12.6,2.2s2.2-1.2,3.1-2.1,0-.4-.2-.2h0Z"/>
          <path class="cls-23" d="M216.8,34.7c.4,1,.7,2.2.4,3.3s.3.3.3,0c.3-1.2,0-2.4-.4-3.5s-.4-.1-.3,0h0Z"/>
          <path class="cls-23" d="M213.7,34.4c-.7.8-1.2,1.7-1.3,2.7s0,.2.2.2.2,0,.2-.2c.1-.9.6-1.8,1.2-2.5s0-.4-.2-.2h0Z"/>
          <path class="cls-23" d="M220.3,33.5c.6,0,1.2.2,1.8.4s1,.5,1.4,1,.4,0,.2-.2c-.9-1-2.1-1.2-3.3-1.4s-.3.3,0,.3h0Z"/>
          <path class="cls-23" d="M224.8,32.4c-.3-.2-.6-.4-.9-.6s-.2,0-.2,0,0,.2,0,.2c.3.2.6.4.9.6s.2,0,.2,0,0-.2,0-.2h0Z"/>
          <path class="cls-23" d="M208.1,33.8c1.2-.5,2.4-.9,3.7-.9s.2-.3,0-.3c-1.3,0-2.6.4-3.8.9s-.1.4,0,.3h0Z"/>
          <path class="cls-28" d="M213.5,133.9s5.8.7,10.7-1l-2.5,3.8,3.3,1.5-2.8,1.9s.5,6.4-.4,10.5c0,0-4.1.6-8.2.7l2.2-2.3-3.6-3,1.6-.8.2-7.9-4.2-3.4h3.6Z"/>
          <path class="cls-28" d="M247.4,107.5s-6,1.6-10.8,2.1l3.1,1.9.9,5.6-1.8,1.9,6,.3-4.5,1.5s2.4.7,8-.4l-1.8-2.5,2.9-1.5-2.9-.2-.7-6.1,1.8-2.6Z"/>
          <g class="cls-31">
            <g>
              <path class="cls-2" d="M225.1,143.9s-5.4,6.7-10.6,11.2"/>
              <path class="cls-2" d="M223.8,139.8s-5.4,6.7-10.6,11.2"/>
              <path class="cls-2" d="M225.1,133.3s-9.1,10.1-14.3,14.6"/>
              <path class="cls-2" d="M223.1,129.3s-9.1,10.1-14.3,14.6"/>
              <path class="cls-2" d="M220.2,126.4s-9.1,10.1-14.3,14.6"/>
              <path class="cls-2" d="M209.1,144.6s6.8,5.4,12.9,8.7"/>
              <path class="cls-2" d="M209.4,140.4s6.8,5.4,12.9,8.7"/>
              <path class="cls-2" d="M206.6,134.3s11.2,7.9,17.3,11.2"/>
              <path class="cls-2" d="M207.7,130s11.2,7.9,17.3,11.2"/>
              <path class="cls-2" d="M209.9,126.5s11.2,7.9,17.3,11.2"/>
            </g>
            <path class="cls-12" d="M212.8,142.1c.2,4.4,2.7,7.8,5.6,7.7,2.9-.1,5.1-3.7,4.9-8.1-.2-4.4-2.7-7.8-5.6-7.7-2.9.1-5.1,3.7-4.9,8.1Z"/>
          </g>
          <path class="cls-12" d="M250.9,140.3c.1,4.2-2,7.7-4.8,7.8-2.8,0-5.1-3.3-5.3-7.5-.1-4.2,2-7.7,4.8-7.8,2.8,0,5.1,3.3,5.3,7.5Z"/>
          <g class="cls-19">
            <path class="cls-2" d="M251.2,118.5s-5,7-9.9,11.8"/>
            <path class="cls-2" d="M249.7,114.5s-5,7-9.9,11.8"/>
            <path class="cls-2" d="M250.6,107.9s-8.5,10.6-13.4,15.3"/>
            <path class="cls-2" d="M248.4,104.1s-8.5,10.6-13.4,15.3"/>
            <path class="cls-2" d="M245.3,101.3s-8.5,10.6-13.4,15.3"/>
            <path class="cls-2" d="M235.4,120.1s7.1,5,13.4,8"/>
            <path class="cls-2" d="M235.4,115.9s7.1,5,13.4,8"/>
            <path class="cls-2" d="M232.3,109.9s11.7,7.3,18,10.2"/>
            <path class="cls-2" d="M233.1,105.6s11.7,7.3,18,10.2"/>
            <path class="cls-2" d="M235,102s11.7,7.3,18,10.2"/>
          </g>
          <path class="cls-10" d="M217.5,19.6c.9,3.3-5.2,7.9,0,10.8-5,1-6.8-10.5-1.1-10.3"/>
          <path class="cls-10" d="M220.8,21.5c2.7,2.4,2.3,5.1,1.6,8.4-.7-1.8-.5-3.6-1.1-5.5-.5-1.8-4.2-3.1-4-4.4"/>
          <path class="cls-10" d="M214.2,21.8c-.4,1.2-.6,4.8-2.7,4.6-2.8-.2-.4-4.4.4-5.4"/>
        </g>
        <g>
          <path class="cls-14" d="M244.8,65c-.2.5.5.8.7.3,1.2-2.1,2.4-4.5,4.8-5.7,1.8-.9,4-.8,6-.4,4.4.8,8.5,2.7,13,3,3.8.3,7.8-.5,10.5-3.2,2.7-2.6,3.2-6.6,2.3-10-1.1-4.6-4.5-8.4-7.9-11.7-.7-.6-1.8.4-1.2,1.1,2.7,3.1,5.8,6.2,7.1,10.2,1.1,3.5.6,7.9-2.7,10.2-7.1,5-15.7-1.1-23.3-1.3-1.9,0-4,.4-5.5,1.5-2,1.5-2.9,3.7-3.8,5.9Z"/>
          <g>
            <path class="cls-24" d="M274.6,38.6l-1.2.7c-1.2.7-2.7.5-3.6-.6l-13.9-17.7,7.7-4.9,11.7,19.1c.7,1.1.3,2.6-.8,3.4Z"/>
            <path class="cls-21" d="M263.5,10.1c-1.8-1.8-4.4-2.5-7-2-5.1,1-8.8,6.5-6,11,2.3,3.7,7.5,5.1,11.4,2.8,2-1.1,3.5-3.2,3.9-5.4.4-2.4-.6-4.8-2.3-6.5Z"/>
            <path class="cls-14" d="M264.6,11.7c-2.1,2.1-4,4.3-6.6,5.8-1.1.7-2.3,1.2-3.5,1.6-.7.2-1.3.4-2,.5-.6.1-1.2.2-1.7.6-.2.2-.3.5,0,.6,1,.8,2.7.4,3.8.2,1.5-.3,2.9-1,4.2-1.7,2.8-1.6,5.3-4,7.1-6.6.6-.8-.5-1.7-1.2-1Z"/>
            <path class="cls-8" d="M265.8,23.8c.3.1.5.5.7.7.8,1.1,1.6,2.2,2.4,3.3.1.2,0,.3-.1.4-.9.6-1.8,1.1-2.6,1.7,0,0-.1,0-.2,0-.3,0-.5-.5-.6-.7-.3-.3-.5-.7-.8-1-.5-.7-1-1.3-1.5-2-.1-.2-.4-.5-.3-.7,0,0,.2-.1.2-.2.7-.5,1.5-1,2.2-1.4.1,0,.3-.2.5-.2Z"/>
            <path class="cls-10" d="M266.4,27.7h0c-.5.3-1.3.2-1.6-.3l-.2-.3c-.4-.5-.2-1.2.3-1.6h0c.5-.3,1.3-.2,1.6.3l.2.3c.4.5.2,1.2-.3,1.6Z"/>
          </g>
        </g>
      </g>
      <g>
        <path class="cls-29" d="M126.7,54.1c.7,2.2,1.2,4.4,1.5,6.5,1.9,13.7-13.5,21.3-19.2,23.1l1.5,12.5s13.5-1.5,24.5-12c9-8.6,13.6-22.1,6.1-38.1"/>
        <path class="cls-29" d="M114.2,95.5c-3.9,1-9.5,1.7-10.2,0-.2-.3,0-.7,0-1.1-1,0-1.9-.2-2.1-1-.2-.6.1-1.1.5-1.6-.8-.1-1.6-.3-1.9-1-.2-.6,0-1.2.6-1.7-.6-.2-1.2-.7-1.2-1.5,0-1.1,1.3-1.4,3.3-2,1.7-.5,5-1.5,7.5-2.5"/>
        <path class="cls-10" d="M107.6,93.6c-1.2.4-2.4.7-3.7.8s-.3.5,0,.5c1.3,0,2.6-.4,3.8-.8s.2-.5-.1-.4h0Z"/>
        <path class="cls-10" d="M106.1,90.8c-1.2.4-2.4.7-3.7.8s-.3.5,0,.5c1.3,0,2.6-.4,3.8-.8s.2-.5-.1-.4h0Z"/>
        <path class="cls-12" d="M143.3,66.3c-2,.3-4,3-4.3,6.1-.3,2.2.7,4.2,1.8,4.8,1.3-2.1,3.5-8.2,3.9-10.9-.3-.1-1,0-1.3,0Z"/>
        <path class="cls-10" d="M105,88.3c-1.2.4-2.5.6-3.7.6s-.3.5,0,.5c1.3,0,2.6-.3,3.9-.6s.2-.5-.1-.4h0Z"/>
        <g>
          <path class="cls-25" d="M198.6,181l5.7,8.3c-.7.8-8.5,10.5-14.5,16.5l1.8-9.1-3.9-5.3,10.9-10.3Z"/>
          <path class="cls-25" d="M138.1,193.5l-.5,9.2s-12.7.2-23.8-1.6l9.8-3.5,6.7-7.6,7.8,3.5Z"/>
          <path class="cls-10" d="M176.6,79.1s1.9,7.5-1.9,32c-3.2,20.4,1.8,33.6,5.5,40.5,8.3,15.5,20.5,32,20.5,32,0,0-4.7,6.9-11.2,9.9,0,0-31-22.7-42.3-54.3l-9.3,58.2s-8.6,1.4-13.7-1.5c0,0-2.9-48.5,3.8-81.1,5.9-28.9,13.7-42.1,13.7-42.1l34.9,6.5Z"/>
          <path class="cls-23" d="M176.5,89c-2-.5-3.9-.9-5.9-1.4s-.4.3-.1.4c2,.5,3.9.9,5.9,1.4s.4-.3.1-.4h0Z"/>
          <path class="cls-23" d="M175.9,91.4c-1.7-.4-3.4-.8-5.1-1.1s-.4.3-.1.4c1.7.4,3.4.8,5.1,1.1s.4-.3.1-.4h0Z"/>
          <path class="cls-23" d="M163.4,77.6c-1.5,8.3-2.5,16.7-3.4,25.1-.4,4-.7,8-.9,12s0,7.1.5,10.6c1.2,9.1,4.2,17.9,8.5,26.1s8.5,13.9,13.7,20.2c4.3,5.2,8.9,10.1,13.2,15.2s.9,1.1,1.3,1.6.5,0,.3-.3c-4-5-8.5-9.7-12.6-14.6-5.1-6.1-10-12.5-13.9-19.4s-7.8-16.4-9.4-25.3c-.7-3.9-1.2-7.8-1.1-11.8s.3-7.5.7-11.2c.8-8.5,1.8-17.1,3.2-25.6s.3-1.7.4-2.6-.4-.4-.4-.1h0Z"/>
          <path class="cls-23" d="M162,89c-4.3-1-7.9-4.1-9-8.4s-.4-2.5-.3-3.8-.4-.3-.4,0c-.2,2.3.3,4.7,1.4,6.7s2.7,3.5,4.7,4.6,2.3,1.1,3.5,1.3.4-.3.1-.4h0Z"/>
          <path class="cls-23" d="M197.9,180c-2.2,3.6-5.5,6.5-9,8.8s-1.9,1.2-2.8,1.8,0,.5.2.4c3.6-2.1,7.1-4.6,9.9-7.8s1.5-1.9,2.1-2.9-.2-.4-.4-.2h0Z"/>
          <path class="cls-23" d="M138.3,192.9c-1.8.2-3.7.2-5.5.1s-3.9-.3-5.9-.8-1.9-.5-2.8-.8-.4.3-.1.4c1.7.7,3.6,1,5.4,1.3s3.9.4,5.9.4,2,0,3-.2.3-.4,0-.4h0Z"/>
          <path class="cls-23" d="M143.7,95.5c-1,6-1.5,12-1.5,18.1s.7,11.7,2.1,17.4,1.8,6.3,3,9.3.5.1.4-.1c-2.2-5.4-3.7-11-4.4-16.8s-.8-11.7-.4-17.5.7-6.9,1.2-10.3-.4-.4-.4-.1h0Z"/>
          <path class="cls-23" d="M141.1,91.1c1.4,2.7,3.3,5.1,5.4,7.2s.5-.1.3-.3c-2.2-2-4-4.4-5.4-7.1s-.5,0-.4.2h0Z"/>
          <path class="cls-23" d="M146.5,74.2c-1.3,3.9-2.3,7.8-3,11.9s-.4,2.3-.5,3.4.4.3.4,0c.5-4,1.3-8,2.4-11.9s.7-2.2,1.1-3.3-.3-.4-.4-.1h0Z"/>
          <path class="cls-23" d="M162.4,85.9c-1.9-.4-3.6-1.5-4.9-3s-1.9-3.8-1.6-5.9-.4-.4-.4-.1c-.5,3.4,1.2,6.7,4.1,8.3s1.7.8,2.6,1,.4-.3.1-.4h0Z"/>
        </g>
        <path class="cls-18" d="M149.7,28.9c-16.3,6.9-18.7,22.1-21.1,36.5,0,0,4.5,2,8.3,2.6,4,.6,8.9,1,8.9,1,0,0,1.7-8.6,5.2-17.8,0,0,18-30.6-1.4-22.4Z"/>
        <path class="cls-23" d="M147,65.4c-4.6-.7-9.2-1-13.6-2.2s-2.4-.7-3.6-1.3-.4.2-.2.4c2.1,1,4.3,1.5,6.6,2s4.8.8,7.2,1.1,2.4.3,3.6.5.4-.4.1-.4h0Z"/>
        <path class="cls-18" d="M176.6,78.9s30.4-49-7.6-51.6c-20.1-1.4-25.9-.8-26.5,29.2l-1.4,16s13.3,5.1,35.4,6.4Z"/>
        <path class="cls-23" d="M149.7,77.5c0,.6-.7,1-1.3.9-.6,0-1.1-.7-1-1.3,0-.6.7-1,1.3-.9.6,0,1.1.7,1,1.3Z"/>
        <path class="cls-10" d="M159.3,15.5c-2-1.2-3.4-3.3-3.2-5.5.3-2.2,2.8-4,4.9-3.3,2,.7,2.2,3.3,4.1,3.2,1.9-.1,8.6-.6,10.3,5.7,1.8,6.8-3.2,9.9-6.1,10.3-1.7.3-2,.6-3.7.1-1.7-.4.4-.7-.3-2.1"/>
        <path class="cls-23" d="M172.6,30.4c-3.9,1.8-8.7,1.7-12.6-.1s-2.1-1.2-3.1-1.9-.5.1-.3.3c3.4,2.9,8.1,4,12.5,3.3s2.4-.6,3.6-1.1,0-.5-.2-.4h0Z"/>
        <path class="cls-29" d="M161.4,27.9l.4-1.7s-4.6.1-3.9-3.5c1.2-6.4,1.1-8.2,4.2-9.6,3.1-1.5,9.6,2.6,8.1,7.8l-1.9,7.7s-1.2.6-3.3.5c-2.2-.2-3.7-1.1-3.7-1.1Z"/>
        <path class="cls-10" d="M163.6,19.4c0,.3-.1.5-.3.4-.1,0-.2-.2-.2-.5,0-.3.1-.5.3-.4.1,0,.2.2.2.5Z"/>
        <path class="cls-10" d="M160.1,19.1c0,.3-.1.5-.3.4-.1,0-.2-.2-.2-.5,0-.3.1-.5.3-.4.1,0,.2.2.2.5Z"/>
        <path class="cls-12" d="M161.7,26.2s2.3,0,4.1-1.2l-4.5,3,.3-1.8Z"/>
        <path class="cls-12" d="M168,21.6c0-1.1-.9-2-2.1-2s-2.1.8-2.1,1.9c0,1.1.9,2,2.1,2,1.1,0,2.1-.8,2.1-1.9Z"/>
        <path class="cls-12" d="M159.4,20.8c0-.7-.3-1.2-.7-1.7-.2,1-.4,2.1-.6,3.5,0,0,0,0,0,.1.8-.3,1.4-1.1,1.4-2Z"/>
        <path class="cls-10" d="M164,17.4c0,.2-.3.3-.6.2-.3,0-.6-.3-.5-.4,0-.2.3-.3.6-.2.3,0,.6.3.5.4Z"/>
        <path class="cls-10" d="M160.6,17c0,.2-.2.4-.5.5-.3,0-.6,0-.7-.1,0-.2.2-.4.5-.5.3,0,.6,0,.7.1Z"/>
        <path class="cls-29" d="M172.4,21.8c0-1.1-.9-2-2.1-2-1.1,0-2.1.8-2.1,1.9,0,1.1.9,2,2.1,2,1.1,0,2.1-.8,2.1-1.9Z"/>
        <path class="cls-10" d="M170.8,20.8c-.8-.1-1.6.4-1.7,1.2s0,.2.2.2.2,0,.2-.2,0,0,0,0,0,0,0,0c0,0,0,0,0-.1s0,0,0,0c0,0,0,0,0,0,0,0,0,0,0,0s0,0,0,0c0,0,0,0,0,0,0,0,0,0,0,0,0,0,0,0,0,0s0,0,0,0,0,0,0,0c0,0,0,0,0,0,0,0,.1,0,.2-.1,0,0,0,0,0,0,0,0,0,0,0,0,0,0,0,0,0,0,0,0,0,0,.1,0s0,0,.1,0c0,0,0,0,0,0,0,0,0,0,0,0,0,0,0,0,.1,0s0,0,0,0c0,0,0,0,0,0,0,0,0,0,0,0,.1,0,.2,0,.2-.1s0-.2-.1-.2h0Z"/>
        <path class="cls-10" d="M161.4,13.2c0,1.1,1,2,2,2.4,1,.5,2.2.7,3.2,1.2,1,.5,1.9,1.5,1.7,2.6,0,.3-.2.6,0,.9,0,.3.4.5.8.5.3,0,.7-.1.9-.3.7-.5,1.1-1.3,1.2-2.1,0-.8-.2-1.7-.5-2.4-.7-1.5-2-2.7-3.6-3.3-1.6-.6-3.5-.5-4.9.4"/>
        <g class="cls-15">
          <path class="cls-10" d="M161.9,20.2c.1-.6.2-1.4.2-2,0-.3-.2-.4-.5-.4-.4,0-.5.2-.5.4,0,.4-.2.7-.2,1.1,0,.3-.2.7,0,1,0,.3.5.4.7.4.3,0,.4-.2.5-.4"/>
        </g>
        <path class="cls-23" d="M143.8,45.1c-.9,3.8-1.3,7.7-1.3,11.6s.4.3.4,0c0-3.9.4-7.7,1.3-11.5s-.3-.4-.4-.1h0Z"/>
        <path class="cls-12" d="M131.6,144.1c.7-4.4-1-8.2-3.9-8.7-.9-.1-1.8,0-2.6.6-.5,5-.8,10-1,14.9.3.2.7.3,1,.3,2.9.4,5.8-2.8,6.5-7.1Z"/>
        <path class="cls-12" d="M156,153.4c2.7-1.1,3.3-5.3,1.4-9.4-1.9-4-5.6-6.4-8.2-5.3-.7.3-1.2.8-1.6,1.4,1.8,4.7,3.9,9.2,6.4,13.5.7,0,1.4,0,2-.2Z"/>
        <g>
          <path class="cls-10" d="M161.9,21.3c.4-.1.6-.5.9-.4.2,0,.4.2.4.3,0,.2,0,.4,0,.6-.2.3-.5.6-.9.7-1,.3-1.5-.2-1.6-.5,0-.2,0-.5.3-.6.2-.1.7,0,.9-.1Z"/>
          <g class="cls-27">
            <path class="cls-16" d="M163.8,21.9c.3.5,0,1.2-.6,1.5-.6.3-1.4.2-1.7-.3-.3-.5,0-1.2.6-1.5.6-.3,1.4-.2,1.7.3Z"/>
          </g>
        </g>
        <g>
          <g>
            <path class="cls-21" d="M154,24.7c0-.6,0-1.1,0-1.7,0-.4,0-.9,0-1.4-.2,0-.4.2-.6.2-1.7.3-3.5-.1-4.7-1.4-.7-.7-1.1-1.6-1.9-2.2-.8-.6-1.8-.7-2.8-.6-.2,0-.4,0-.6,0-1.8.2-3.5,1.1-4.9,2.2-2.6,2.1-3.8,4.8-4.9,7.8-1.1,3.1-2.1,6.2-3.1,9.3-3.1,10.6-5.3,21.5-6.3,32.4-.4,4.3-.5,8.6-.8,12.9-.2,2.2-.3,4.4-.7,6.5,0,.5-.3,3.5-.7,3.7-1.4.6-1.2-1.5-1.3-2.1-.3-4.4.5-8.8.5-13.2,0-4.3-.5-8.5-1.5-12.7-.1-.5.2-1,.5-1.4,1.6-2.6-2.6-2.2-4-2-2.6.4-5,1.5-7.3,2.6-1.6.7-3.1,1.6-4.4,2.7-.5.4-1,.9-1.3,1.5-.7,1.2,0,2.7,1.2,3.1,1.7.5,2.1.2,2.9,2,1.7,3.8,1.3,8.2.9,12.2-.5,4.8-1,9.9,1.3,14.1,1.5,2.8,4.2,5,7.4,5.9,6.2,1.9,12.8-1,15.4-6.5,2.3-4.9,2.5-10.5,3-15.8.7-7.1.3-13.5,1-20.6.3-4.9.7-9.8,1.1-14.6.4-3.7.9-7.4,1.3-11.1.2-1.9.4-3.8.6-5.7.2-1.6.1-3.3.7-4.8.5-1.1,1.1-2.3,2.2-2.8,2.8-1.4,4.6.5,7.2,1.3.5.2,1,.3,1.5.4,1,0,2-.2,3-.6Z"/>
            <path class="cls-1" d="M159,20.9c-.2-.1-.4-.2-.7-.1-1.5.3-4.1.8-5.3,1-.4,0-.6.4-.5.7,0,.5.2,1.1.3,1.3,0,.2.1.5.2.8,0,.3.4.5.8.5,1.3-.3,2.6-.6,3.8-.8,1.2-.2,2.3-.7,3.5-.9.2-.5.2-1.1,0-1.6,0,0,0,0,0,0-.7-.3-1.5-.6-2.3-.9Z"/>
            <path class="cls-32" d="M126.6,75.7c-1.3.2-2.4,1.3-2.2,2.6.2,1.2,1.3,2.3,2.6,2.1.2,0,.4,0,.5-.2,1.2-.2,2.2-1.2,2-2.4-.2-1.4-1.6-2.3-3-2.1Z"/>
            <path class="cls-32" d="M129.4,68.7c-1.3-.7-3.3-.6-4,.8-.4.8-.2,1.7.2,2.4,1.4,1.9,5.4,1.3,5.2-1.3,0-.8-.7-1.5-1.4-1.9Z"/>
            <path class="cls-32" d="M130.4,62.1c-.9-.7-2.4-.6-3.3.2-1.2.9-1.1,2.6,0,3.5,1.1.8,2.7.7,3.6-.3.9-1,.7-2.6-.3-3.3Z"/>
            <path class="cls-32" d="M131.6,55.1c-.1-.1-.3-.2-.4-.3-.5-.3-1.1-.4-1.7-.3-1.9.3-3,2.4-1.9,3.7.5.6,1.2.8,2,.9.6,0,1.2-.2,1.8-.4,1.9-.8,1.5-2.6.3-3.5Z"/>
            <path class="cls-32" d="M135.8,49.9l-2.5-.2c0-.4-.1-.7-.3-1-.3-.4-.9-.7-1.5-.8-.6-.1-1.3,0-1.8.4-.4.2-.7.7-.8,1.1,0,0,0,0,0,.1-.3.6-.2,1.2.2,1.7.7.8,2,1,3,.5.5-.2.8-.6,1.1-1,.8,0,1.7.2,2.5.2.7,0,.9-.9.2-1Z"/>
            <path class="cls-32" d="M129.6,38.9c-.7.3-1,.9-.8,1.6,0,0,0,.1,0,.2.2.6,1,1,1.6.7.7-.3,1-.9.8-1.6,0,0,0-.1,0-.2-.2-.6-1-1-1.6-.7Z"/>
            <path class="cls-32" d="M130.8,34.9c-1.6.5-.7,2.9.9,2.3,1.6-.5.7-2.9-.9-2.3Z"/>
            <path class="cls-32" d="M133.3,30.9c-.6-.4-1.3-.3-1.8.2,0,0,0,0-.1.1-.2.2-.3.6-.3.9,0,.3.2.7.5.9.6.4,1.3.3,1.8-.2,0,0,0,0,.1-.1.2-.2.3-.6.3-.9,0-.3-.2-.7-.5-.9Z"/>
            <path class="cls-32" d="M133.1,27.5c-.6.3-1,.9-.8,1.6h0c.2.7,1,1.1,1.6.8.6-.3,1-.9.8-1.6h0c-.2-.7-1-1.1-1.6-.8Z"/>
            <path class="cls-32" d="M134.4,57.3c-1.4-.3-2.8-.5-4.2-.7-.7,0-.9.9-.2,1,1.4.2,2.8.4,4.2.7.7.1.9-.9.2-1Z"/>
            <path class="cls-32" d="M133.2,64.8c-1.4-.3-2.8-.4-4.3-.6-.7,0-.9,1-.2,1,1.4.1,2.8.3,4.3.6.7.1.9-.9.2-1Z"/>
            <path class="cls-32" d="M133,71.4c-1.5-.3-3.1-.5-4.6-.6-.7,0-.9,1-.2,1,1.6,0,3.1.3,4.6.6.7.1.9-.9.2-1Z"/>
            <path class="cls-32" d="M132.3,78.1c-1.6.1-3.2,0-4.7,0-.7,0-.9.9-.2,1,1.7.2,3.3.2,5,0,.7,0,.6-1.1,0-1Z"/>
            <path class="cls-32" d="M132.6,39.9c-.7,0-1.4,0-2-.1-.7-.1-.9.9-.2,1,.8.2,1.5.2,2.3.1.7,0,.6-1.1,0-1Z"/>
            <path class="cls-32" d="M133.6,36c-.8,0-1.6,0-2.4,0-.7,0-.9.9-.2,1,.9,0,1.8.1,2.6,0,.7,0,.6-1,0-1Z"/>
            <path class="cls-32" d="M135,31.6c-.8,0-1.6,0-2.4-.2-.7-.1-.9.9-.2,1,.9.1,1.8.2,2.7.2.7,0,.6-1,0-1Z"/>
            <path class="cls-32" d="M136.7,29.1c-.4-.2-.8-.3-1.3-.4-.4,0-.9,0-1.2-.3-.6-.4-1.2.4-.7.8.4.3.9.4,1.4.5.5,0,1,0,1.4.3.6.3,1-.6.5-.9Z"/>
            <path class="cls-32" d="M116.8,62.3c-2.1-.5-5.2,1-6.9,1.9-.9.5-2.1,1.1-3.1,1.8-.1,0-.2.2-.3.2-1,.5-1.9,1.2-1.9,1.9,0,1,.8,1,1.6,1,.3,0,.6,0,.9-.1,2.2-.3,5.5-1.7,6.1-2,1-.4,7.1-3.9,3.6-4.8Z"/>
            <path class="cls-32" d="M117.7,66.4c-3.3,2.4-6.9,4-11,4.7-.7.1-.6,1.1,0,1,4.3-.7,8.1-2.3,11.5-4.9.5-.4,0-1.2-.6-.8Z"/>
            <path class="cls-32" d="M136.4,34.6c-1.1,10.9-2.3,21.9-3.4,32.8-.6,5.4-1.1,10.8-1.7,16.2-.5,4.6.2,13.2-5.5,15-.7.2-.3,1.2.4,1,4.2-1.3,5.1-5.5,5.5-9.2.7-6.2,1.3-12.5,1.9-18.7,1.3-12.3,2.6-24.6,3.8-36.9,0-.7-1-.8-1.1-.2Z"/>
          </g>
          <path class="cls-22" d="M125.8,78c0-.5.4-.9.9-.9.1,0,.3,0,.5,0,.4.1.7.5.8.9,0,.4-.1.7-.5.9-.1,0-.3.1-.4.1-.2,0-.4,0-.6,0-.2,0-.3-.2-.4-.3-.2-.2-.3-.4-.3-.6Z"/>
          <path class="cls-22" d="M127.3,69.5c.9-.2,1.7.5,1.6,1.3,0,.2-.2.3-.3.4-.4.5-1.3.5-1.7,0-.6-.6-.3-1.5.5-1.7Z"/>
          <path class="cls-22" d="M127.3,63.3c.4-.7,1.6-.7,1.9.1,0,0,0,0,0,0,.1.2.2.5.1.7-.2.6-.9,1-1.6.7-.5-.3-.8-1-.5-1.5Z"/>
          <path class="cls-22" d="M128.5,56.2c.2-.4.7-.5,1.1-.5.1,0,.2,0,.4.1.3.1.6.4.6.8,0,.6-.6,1.1-1.2,1-.7,0-1.2-.9-.8-1.5Z"/>
          <path class="cls-22" d="M129.5,49c.4-.5,1.1-.6,1.6-.2.3.2.4.5.4.9,0,0,0,.2,0,.2,0,.3-.2.5-.5.6-.4.2-1,.2-1.3-.1-.4-.4-.5-.9-.1-1.4Z"/>
        </g>
        <path class="cls-29" d="M164.1,76.7c-1.5,1.8-3.2,3.4-4.8,4.8-10.8,9.2-26,1.3-30.8-2.2l-10,8.3s8.9,9.8,24.2,12.6c12.5,2.3,26.8-1.7,36.4-16.6"/>
        <path class="cls-29" d="M121.2,90.1c-3.1-2.5-6.8-6.5-5.8-8,.2-.3.6-.5,1-.6-.5-.8-.8-1.6-.3-2.3.4-.5,1-.6,1.7-.5-.4-.7-.7-1.5-.2-2,.4-.5,1.1-.6,1.8-.5-.1-.6,0-1.4.6-1.8.9-.6,1.9.2,3.6,1.5,1.4,1.1,4.1,3.1,6.4,4.5"/>
        <path class="cls-10" d="M119.1,83.8c-1-.7-2-1.6-2.8-2.5s-.5,0-.3.3c.8,1,1.8,1.8,2.8,2.6s.5-.2.2-.4h0Z"/>
        <path class="cls-10" d="M120.7,81c-1-.7-2-1.5-2.8-2.5s-.5,0-.3.3c.8,1,1.8,1.8,2.9,2.6s.5-.2.2-.4h0Z"/>
        <path class="cls-12" d="M162.8,96.7c-1.4-1.4-4.8-1.4-7.7,0-2.1,1-3.2,2.9-3.2,4.2,2.5,0,9.1-1.8,11.6-3.1,0-.3-.5-.8-.8-1Z"/>
        <path class="cls-18" d="M186.8,37.2c2.2,6.3,7.2,26.6-10,50.3,0,0-6.5-5.5-14.6-9.2,0,0,4.8-6.9,8.5-21.5,3-11.7,5.4-24.8,12.1-23.2,1.9.4,3.3,1.9,3.9,3.6Z"/>
        <path class="cls-23" d="M179.1,83.8c-3.5-2.8-7-5.4-11-7.3s-2.6-1.2-4-1.8-.4.3-.1.4c4.4,1.7,8.4,4.1,12.1,6.9s1.8,1.4,2.7,2.1.5-.1.3-.3h0Z"/>
        <path class="cls-5" d="M165.8,69.1s6.4-15.7,9.7-25.1c3.3-9.4,6.2-8.6,6.2-8.6"/>
        <path class="cls-10" d="M122.3,78.8c-1-.7-1.9-1.6-2.6-2.6s-.2-.1-.3,0-.2.2,0,.3c.8,1,1.7,2,2.8,2.7s.3,0,.3,0,0-.2,0-.3h0Z"/>
      </g>
      <g>
        <path class="cls-14" d="M276.4,85.3c-.7-.9-1.7-1.5-2.6-2.2-1-.7-1.9-1.5-2.9-2.2-.1-.1-.3-.2-.4-.2,0,0,0,0,0,0,0,0,0,0,0,0-.4,0-.8.1-.9.5,0,0,0,0,0,0,0,0,0,0,0,0-.5.6-1.6,1.2-2.1,1.6-.8.6-1.5,1.2-2.3,1.8-1.3,1-2.5,2-3.9,2.9-.2-.3-.3-.6-.5-.8-.8-.9-2-1.4-3.3-1.4-1.1,0-2.6.7-1.7,1.9.6.8,1.5,1.4,2.5,1.8.8.4,2.1.9,2.9.3,0,0,.1-.1.2-.2,1.7-1.1,3.3-2.4,4.9-3.6.9-.7,1.7-1.4,2.6-2.1.5-.4,1.2-.8,1.7-1.3.7.7,1.4,1.3,2.1,2,.7.6,1.4,1.3,2.3,1.8-.9,1.5-1.8,3-2.8,4.5-.9,1.4-2,2.7-2.8,4.1-.6-.3-1.2-.5-1.9-.6-.9-.2-2-.1-2.4.8-.8,1.9,3.7,2.2,4.8,1.9.4-.1.6-.6.6-.9,2.5-2.5,4.3-6.2,5.9-9.3,0-.1,0-.3,0-.4.3-.2.4-.5.1-.9Z"/>
        <path class="cls-14" d="M29.6,126c0-.2-.2-.3-.3-.5-.3-.4-.6-.9-1.1-1-.7-.1-1.5.2-2.1.4-1.3.4-2.5.9-3.6,1.5-.7.4-2.3,1-2.5,1.9,0,.4.3,1,.5,1.3.6,1.2,1.4,2.4,1.9,3.7.3.7.6,1.4.9,2.1,0,0,0,0-.1,0-1.5-.2-3,1.6-3.3,2.8-.3,1.3.5,3,2,3.2,1.3.2,2.5-.8,2.9-2,.6-1.7-.3-3.7-.9-5.3-.5-1.4-1.1-2.9-1.8-4.2,2.1-1.3,4.3-2.4,6.7-3.3.5,1,1.1,2.1,1.6,3.1.3.7.6,1.4.9,2.1,0,0,0,0-.1,0-1.5-.2-3,1.6-3.3,2.8-.3,1.3.5,3,2,3.2,1.3.2,2.5-.8,2.9-2,.6-1.7-.3-3.7-.9-5.3-.5-1.2-1-2.4-1.5-3.6-.2-.4-.4-.8-.7-1.3Z"/>
      </g>
      <g>
        <g>
          <path class="cls-25" d="M291.3,196.8l7.4-1.5c-.6-1.8-1.5-3.5-2.6-5.1l-9.3,6.2,7.4-8.4c-1.3-1.3-2.9-2.4-4.6-3.3l-7.5,9.9s0,0,0,0h0c.3-.5,3.8-8.4,4.9-11-2-.7-4.1-1-6.3-1s-1.2,0-1.8,0l-.5,11.2-1.7-10.9c-2,.4-3.9,1.1-5.6,2.1l3.3,8.5-4.8-7.6c-2.2,1.5-4,3.5-5.3,5.8l7.2,4.6-8.1-2.8c-.9,2-1.4,4.3-1.4,6.6h37.4c0-1-.1-2.1-.3-3.1l-7.9-.4Z"/>
          <line class="cls-6" x1="283.1" y1="182.7" x2="279.8" y2="200.2"/>
          <line class="cls-6" x1="273.5" y1="184" x2="278.2" y2="200.2"/>
          <line class="cls-6" x1="267" y1="188.4" x2="276.3" y2="200.2"/>
          <path class="cls-6" d="M262.1,197.3c.3,0,11.8,2.9,11.8,2.9"/>
          <line class="cls-6" x1="292.2" y1="186.3" x2="281.7" y2="200.2"/>
          <line class="cls-6" x1="297.3" y1="192.1" x2="283.8" y2="200.2"/>
          <line class="cls-6" x1="299.2" y1="198.3" x2="285.8" y2="200.2"/>
        </g>
        <g>
          <path class="cls-25" d="M30.5,196.8l7.4-1.5c-.6-1.8-1.5-3.5-2.6-5.1l-9.3,6.2,7.4-8.4c-1.3-1.3-2.9-2.4-4.6-3.3l-7.5,9.9s0,0,0,0h0c.3-.5,3.8-8.4,4.9-11-2-.7-4.1-1-6.3-1s-1.2,0-1.8,0l-.5,11.2-1.7-10.9c-2,.4-3.9,1.1-5.6,2.1l3.3,8.5-4.8-7.6c-2.2,1.5-4,3.5-5.3,5.8l7.2,4.6-8.1-2.8c-.9,2-1.4,4.3-1.4,6.6h37.4c0-1-.1-2.1-.3-3.1l-7.9-.4Z"/>
          <line class="cls-6" x1="22.3" y1="182.7" x2="19" y2="200.2"/>
          <line class="cls-6" x1="12.7" y1="184" x2="17.4" y2="200.2"/>
          <line class="cls-6" x1="6.2" y1="188.4" x2="15.5" y2="200.2"/>
          <path class="cls-6" d="M1.3,197.3c.3,0,11.8,2.9,11.8,2.9"/>
          <line class="cls-6" x1="31.4" y1="186.3" x2="20.9" y2="200.2"/>
          <line class="cls-6" x1="36.5" y1="192.1" x2="23" y2="200.2"/>
          <line class="cls-6" x1="38.4" y1="198.3" x2="25" y2="200.2"/>
        </g>
      </g>
    </g>
  </g>
</svg>